<?xml version="1.0" standalone="no"?>
<!DOCTYPE svg PUBLIC "-//W3C//DTD SVG 20010904//EN"
 "http://www.w3.org/TR/2001/REC-SVG-20010904/DTD/svg10.dtd">
<svg version="1.0" xmlns="http://www.w3.org/2000/svg"
 width="885.000000pt" height="885.000000pt" viewBox="0 0 885.000000 885.000000"
 preserveAspectRatio="xMidYMid meet">
<metadata>
Created by potrace 1.11, written by Peter Selinger 2001-2013
</metadata>
<g transform="translate(0.000000,885.000000) scale(0.100000,-0.100000)"
fill="#000000" stroke="none">
<path d="M4530 8748 c-41 -56 -115 -156 -165 -223 -49 -67 -112 -148 -140
-181 -27 -33 -65 -82 -82 -107 -39 -56 -59 -62 -32 -10 23 46 25 83 3 83 -9 0
-14 3 -12 8 2 4 17 36 35 72 87 179 29 195 -70 20 -30 -53 -49 -76 -65 -78
-13 -2 -35 -22 -54 -50 -68 -100 -135 -165 -78 -76 34 54 37 77 14 122 -17 36
-31 41 -41 15 -9 -25 -78 -118 -134 -181 -60 -68 -110 -105 -56 -42 150 176
197 243 197 277 0 24 0 24 -29 7 -17 -10 -84 -82 -151 -160 -67 -78 -130 -150
-141 -159 -18 -17 -19 -17 -19 6 0 14 -5 30 -10 35 -8 8 -2 27 16 62 22 42 24
54 14 67 -10 12 3 33 81 127 148 178 256 318 245 318 -3 0 -40 -44 -83 -97
-121 -154 -207 -256 -358 -424 -77 -87 -162 -182 -188 -213 -27 -31 -56 -56
-65 -56 -9 0 -58 -33 -107 -73 -119 -95 -155 -121 -155 -108 0 5 25 34 56 63
102 96 199 214 244 299 48 89 122 193 214 299 31 36 56 73 56 83 0 27 -11 19
-75 -58 -32 -38 -117 -129 -189 -202 -115 -115 -132 -129 -136 -110 -3 12 -15
24 -25 26 -11 2 -25 11 -32 20 -15 18 -1 31 -196 -190 -121 -138 -257 -269
-257 -248 0 6 29 42 65 80 83 88 140 195 83 155 -28 -20 -39 -20 -32 -2 3 8 0
25 -6 37 l-12 22 -12 -22 c-7 -12 -15 -18 -19 -15 -10 10 -37 -17 -220 -216
-88 -96 -174 -188 -190 -205 l-29 -30 6 28 c6 26 -8 39 -17 15 -8 -24 -14 -3
-10 32 4 29 14 42 58 73 29 22 70 57 91 79 37 37 37 39 11 29 -15 -6 -40 -17
-57 -26 -38 -20 -37 -20 -36 21 0 21 -4 39 -10 41 -6 2 -40 -36 -75 -84 -62
-86 -64 -87 -67 -57 -4 38 54 211 80 240 10 11 15 23 12 27 -4 4 5 25 20 48
51 76 42 152 -9 81 -10 -15 -61 -78 -113 -139 -95 -114 -144 -154 -78 -64 39
53 71 120 61 129 -8 8 -58 -43 -122 -125 -32 -40 -59 -71 -61 -69 -1 2 13 33
33 69 35 63 42 106 20 114 -6 2 -19 -11 -29 -29 -21 -35 -167 -191 -173 -184
-2 2 12 33 32 68 19 36 35 68 35 71 0 16 -30 5 -44 -15 -9 -12 -16 -17 -16
-11 0 23 47 118 74 151 20 23 24 32 13 32 -36 0 -79 -57 -155 -203 -161 -313
-329 -556 -545 -789 -73 -79 -203 -230 -290 -335 -87 -106 -190 -225 -228
-265 -61 -65 -70 -71 -80 -55 -14 24 -29 12 -29 -23 0 -22 -8 -33 -37 -51 -21
-13 -57 -38 -80 -57 -26 -21 -49 -32 -58 -28 -23 8 -28 -15 -15 -75 17 -87 31
-217 28 -262 l-3 -42 -17 38 c-17 37 -44 53 -34 20 39 -126 58 -220 60 -286 1
-42 -1 -74 -5 -70 -4 5 -15 40 -25 78 -25 102 -26 104 -37 69 -7 -24 -4 -53
12 -120 22 -98 51 -266 51 -303 l0 -23 -20 23 -20 24 10 -27 c5 -16 16 -38 24
-50 8 -14 17 -65 21 -123 3 -55 9 -108 11 -118 5 -15 1 -17 -21 -11 l-27 7 7
-64 c4 -35 10 -71 14 -79 4 -8 5 -40 3 -70 l-4 -55 -33 92 c-34 96 -61 142
-83 143 -16 0 -12 -28 25 -150 50 -165 63 -222 47 -209 -8 6 -14 18 -14 25 0
8 -6 14 -14 14 -9 0 -21 22 -30 58 -9 31 -21 64 -26 72 -15 22 -32 64 -70 168
-19 50 -38 92 -42 92 -4 0 -5 -6 -3 -12 41 -123 130 -496 120 -506 -6 -6 -27
40 -46 98 -12 40 -22 55 -34 53 -12 -1 -23 12 -33 38 -15 39 -38 51 -48 25 -3
-8 11 -62 31 -120 21 -59 35 -110 31 -113 -3 -3 -10 7 -16 23 -35 95 -74 190
-83 199 -18 19 1 -50 52 -188 28 -76 63 -179 76 -230 39 -143 115 -625 118
-738 2 -95 9 -120 22 -80 13 41 35 199 35 253 0 48 17 146 36 212 8 26 18 12
50 -74 29 -75 29 -76 29 -303 0 -126 2 -220 5 -210 3 10 14 34 25 53 17 31 20
62 24 255 6 213 7 219 23 189 26 -47 140 -144 170 -144 6 0 -9 346 -16 370 -7
21 -2 19 34 -17 38 -38 60 -52 60 -38 0 2 -14 31 -30 64 -22 42 -42 116 -71
253 -49 235 -54 268 -33 208 8 -25 26 -101 40 -169 14 -69 30 -133 35 -143 21
-39 29 -15 29 90 0 59 10 174 22 256 22 151 22 152 54 100 7 -13 9 33 6 162
-2 98 -2 177 1 174 3 -3 24 -99 47 -214 26 -130 55 -242 77 -299 19 -50 39
-118 44 -151 13 -88 18 -106 29 -106 20 0 9 453 -20 792 -13 156 -1 395 34
658 32 240 47 437 46 580 -1 63 -1 123 -1 132 1 13 52 43 174 104 94 48 195
101 223 119 57 37 114 68 114 62 0 -2 -34 -25 -75 -51 -41 -26 -80 -56 -85
-66 -5 -10 -31 -30 -57 -45 -58 -34 -94 -65 -87 -76 3 -5 17 0 32 10 25 18
125 39 106 22 -5 -4 -35 -26 -66 -50 -31 -23 -63 -52 -72 -64 -40 -57 -43 -59
-66 -47 -30 16 -37 5 -14 -21 29 -32 72 -51 128 -56 42 -4 56 -1 75 16 13 12
32 21 42 21 10 0 46 23 80 50 57 46 66 50 116 50 44 0 58 5 79 25 14 14 34 25
45 25 24 0 87 26 109 44 8 7 29 16 45 20 43 10 103 52 124 87 17 28 24 31 79
34 55 3 162 32 267 72 40 16 159 28 370 39 61 3 114 10 120 15 5 5 33 9 63 9
51 0 53 -1 47 -22 -10 -32 -61 -83 -120 -121 -27 -17 -51 -35 -53 -39 -8 -18
-139 -93 -218 -125 -49 -19 -98 -43 -109 -53 -11 -10 -51 -30 -90 -45 -200
-79 -352 -175 -478 -303 -113 -114 -215 -267 -193 -289 7 -8 46 26 46 41 0 28
87 148 162 224 114 116 319 248 475 306 192 71 248 88 364 111 119 23 141 25
199 15 73 -12 186 -64 259 -119 27 -20 99 -79 160 -132 108 -94 174 -135 229
-144 15 -2 44 -7 65 -10 48 -8 89 -66 89 -131 1 -36 -6 -52 -42 -99 -47 -61
-145 -150 -252 -228 -64 -47 -81 -67 -58 -67 21 0 86 40 155 94 57 44 71 52
76 39 3 -9 13 -19 22 -22 15 -6 11 -16 -27 -74 -40 -60 -84 -172 -73 -183 2
-2 16 20 32 48 60 112 125 194 220 276 52 45 106 100 121 121 30 46 54 129 54
188 0 58 -32 216 -69 345 -61 207 -125 331 -231 443 -31 33 -81 95 -110 138
-42 63 -67 87 -126 126 -47 32 -74 44 -74 35 0 -8 4 -14 8 -14 5 0 19 -15 32
-32 l23 -33 -39 36 c-21 20 -59 49 -84 64 -49 31 -50 34 20 -62 l35 -48 -45
38 c-48 41 -121 67 -184 67 -39 -1 -40 -1 -21 -17 20 -15 19 -15 -5 -9 -14 3
-52 8 -85 11 l-60 5 40 -20 40 -21 -60 8 c-92 12 -479 7 -483 -6 -2 -6 -30
-11 -67 -11 -35 0 -67 -4 -70 -10 -3 -5 -24 -10 -46 -10 -26 0 -42 -5 -45 -15
-5 -11 -22 -15 -68 -15 -67 0 -82 -6 -66 -25 8 -9 -2 -14 -41 -19 -29 -4 -73
-18 -100 -32 -27 -13 -57 -24 -69 -24 -11 0 -42 -9 -70 -19 -27 -11 -50 -18
-50 -16 0 1 64 46 143 100 78 54 151 106 162 116 12 10 56 30 99 44 174 57
400 172 625 318 l114 74 41 -23 c60 -34 169 -33 268 2 122 44 345 166 608 334
l105 67 100 7 c208 14 561 128 855 276 125 63 141 68 219 75 47 4 123 18 170
31 114 33 305 127 415 205 86 61 356 312 356 330 0 5 -244 9 -571 9 l-571 0
-53 -46 c-30 -25 -59 -43 -65 -39 -15 9 -68 -32 -180 -141 -100 -97 -189 -168
-198 -160 -3 3 18 31 47 61 56 59 92 125 84 156 -9 32 -29 21 -82 -43 -27 -35
-85 -99 -127 -143 l-76 -80 48 70 c26 39 75 106 109 150 82 108 156 215 147
215 -4 0 -41 -46 -82 -102z m-1170 -661 c0 -2 -12 -14 -27 -28 l-28 -24 24 28
c23 25 31 32 31 24z m-1247 -254 c-8 -21 -33 -56 -54 -78 -21 -22 -70 -83
-110 -135 -82 -108 -171 -211 -177 -205 -17 17 318 455 348 455 5 0 2 -17 -7
-37z m-598 -363 c-9 -16 -20 -30 -26 -30 -6 0 -1 14 11 30 12 17 23 30 26 30
2 0 -2 -13 -11 -30z m210 -660 c-3 -5 -12 -10 -18 -10 -7 0 -6 4 3 10 19 12
23 12 15 0z m-1358 -2217 c-2 -16 -4 -5 -4 22 0 28 2 40 4 28 2 -13 2 -35 0
-50z"/>
<path d="M7355 8833 c12 -32 54 -195 79 -308 31 -141 44 -255 56 -485 9 -179
20 -253 40 -265 6 -4 10 -16 11 -28 0 -21 1 -21 12 2 10 22 14 8 35 -110 32
-185 42 -566 19 -719 -25 -166 -29 -220 -19 -220 5 0 13 12 16 26 4 15 9 24
12 21 3 -3 -4 -54 -16 -113 -17 -90 -21 -140 -18 -284 1 -97 -1 -181 -6 -188
-4 -6 -3 -12 2 -12 5 0 14 10 20 23 l11 22 0 -25 c0 -14 -8 -58 -19 -99 -11
-41 -20 -100 -19 -130 l1 -56 14 46 c16 52 174 369 174 349 0 -7 -11 -67 -25
-134 -37 -186 -152 -453 -250 -581 -41 -54 -94 -172 -111 -245 -9 -39 -13 -74
-10 -77 13 -13 32 8 49 56 11 33 35 68 66 99 55 55 271 236 271 227 0 -4 -5
-16 -11 -27 -31 -58 -82 -224 -110 -361 -29 -139 -31 -163 -26 -282 3 -71 9
-140 13 -152 12 -42 31 -26 37 31 7 68 69 248 135 392 28 61 68 155 88 210 20
54 56 141 80 191 24 51 44 98 44 104 0 6 8 24 17 40 9 15 14 31 10 35 -12 12
-43 -25 -56 -65 -6 -21 -18 -44 -26 -51 -13 -11 -13 -7 0 36 8 26 12 51 9 56
-10 16 36 110 89 183 65 90 161 272 147 280 -5 3 -10 22 -10 41 0 19 -2 34 -5
34 -8 0 -64 -39 -93 -65 l-24 -20 21 53 c12 30 21 76 21 107 0 30 8 76 19 102
10 26 22 64 26 83 l7 35 -26 -24 c-37 -34 -32 -13 10 50 32 47 34 51 10 29
-15 -14 -42 -56 -60 -95 -18 -38 -53 -112 -76 -163 -24 -50 -45 -90 -48 -87
-3 2 18 63 47 134 51 128 91 263 91 308 0 57 -45 1 -76 -95 l-18 -57 -7 40
c-4 22 -6 47 -3 56 3 10 41 81 84 159 44 78 80 148 80 156 0 32 -22 9 -66 -67
-25 -44 -48 -78 -50 -76 -2 2 10 43 26 92 30 89 37 135 22 135 -20 0 -53 -51
-87 -130 -45 -108 -168 -335 -160 -295 3 17 35 103 71 193 35 90 64 176 64
191 0 15 12 43 26 62 28 37 47 69 41 69 -2 0 -18 -20 -37 -45 -33 -44 -71 -64
-52 -27 21 39 91 250 97 287 4 31 1 25 -14 -23 -13 -40 -34 -78 -60 -108 -23
-27 -55 -82 -77 -135 -20 -49 -39 -88 -41 -85 -2 2 17 68 42 147 54 167 66
239 42 239 -9 0 -19 -9 -22 -20 -7 -22 -13 -24 -34 -11 -9 6 -11 15 -6 27 4
11 9 35 10 55 2 20 26 109 54 197 28 89 48 168 45 176 -3 8 2 41 10 73 36 132
65 273 70 343 l6 75 -19 -60 c-10 -33 -35 -116 -55 -185 -20 -68 -39 -126 -41
-129 -3 -2 -5 8 -5 22 0 15 -4 27 -10 27 -5 0 -10 -4 -10 -10 0 -5 -4 -10 -10
-10 -6 0 -6 9 -1 23 15 38 25 207 12 207 -13 0 -43 -58 -66 -130 -26 -82 -35
-83 -36 -4 -1 38 -3 61 -6 52 -4 -17 -23 -26 -23 -10 0 4 5 59 10 122 6 63 12
135 14 160 2 25 10 101 17 170 7 78 9 148 4 185 l-8 60 -18 -55 c-14 -47 -18
-51 -23 -30 -13 61 -15 62 -10 7 8 -86 -5 -207 -22 -207 -8 0 -14 9 -14 20 0
11 -6 20 -14 20 -23 0 -45 -38 -67 -115 -27 -95 -29 -99 -35 -92 -7 7 22 214
47 335 10 52 19 98 19 103 0 5 -81 9 -181 9 -168 0 -181 -1 -174 -17z m431
-796 c-7 -37 -16 -71 -21 -75 -4 -4 -5 2 -2 13 3 11 8 38 12 60 7 48 16 78 20
73 2 -2 -2 -34 -9 -71z"/>
<path d="M6618 7588 c-41 -26 -57 -30 -135 -33 -48 -2 -119 -13 -158 -23 -63
-18 -115 -24 -182 -23 -12 0 -35 -4 -50 -11 -15 -6 -53 -15 -83 -19 -30 -4
-86 -12 -125 -17 -38 -6 -79 -13 -90 -17 -16 -5 -14 -1 8 19 15 14 27 27 27
29 0 13 -75 -14 -105 -37 -18 -14 -40 -26 -48 -26 -8 0 -39 -13 -70 -28 -31
-16 -58 -24 -60 -19 -5 15 -84 -26 -141 -73 -56 -47 -62 -49 -40 -15 30 46 5
39 -38 -10 -39 -44 -130 -165 -194 -257 -28 -41 -43 -111 -25 -122 7 -4 11 1
11 13 0 11 4 31 10 46 l10 26 22 -21 c12 -11 32 -20 44 -20 44 0 53 -9 42 -41
-7 -22 -6 -39 8 -74 30 -79 24 -119 -32 -215 l-49 -85 -3 -147 c-4 -163 5
-203 32 -150 9 18 20 32 25 32 4 0 40 40 79 88 148 183 322 327 506 417 53 26
116 45 250 72 174 36 181 36 265 24 103 -14 300 -65 350 -90 151 -75 235 -129
293 -187 60 -60 88 -77 88 -53 0 6 -30 39 -67 75 -47 45 -104 85 -195 135
-111 61 -148 76 -263 105 -194 48 -286 58 -377 39 -40 -8 -136 -23 -213 -34
-77 -11 -153 -25 -168 -30 -16 -6 -31 -11 -34 -11 -12 0 132 145 185 187 98
78 218 153 244 153 14 0 45 7 68 15 25 9 79 15 134 15 55 1 107 7 131 16 38
14 118 20 335 26 52 2 100 6 106 10 7 4 17 1 24 -7 15 -18 102 -36 165 -33 28
1 75 -1 105 -6 48 -7 58 -5 83 14 15 12 27 25 27 29 0 21 -65 102 -103 127
-23 16 -61 45 -85 66 -45 38 -144 78 -195 78 -16 0 -26 4 -22 10 3 6 20 10 38
10 19 0 27 4 22 9 -6 5 -48 12 -95 15 -47 2 -104 8 -127 11 -26 5 -60 2 -92
-8 -28 -8 -51 -13 -51 -11 0 1 9 19 21 38 25 43 19 44 -43 4z m-1008 -892 c0
-2 -12 -11 -27 -20 l-28 -17 24 20 c23 21 31 25 31 17z"/>
<path d="M6010 6701 c-160 -48 -363 -177 -528 -335 -101 -96 -139 -177 -68
-145 21 10 34 10 62 0 31 -11 38 -11 54 4 10 9 21 33 25 53 16 86 43 128 127
192 71 56 187 124 195 116 2 -2 -6 -23 -17 -47 -24 -54 -25 -85 -3 -163 13
-49 27 -71 67 -111 28 -28 70 -60 94 -72 l44 -21 -68 -7 c-63 -7 -196 -3 -358
11 -101 9 -75 -10 34 -26 113 -16 467 -7 597 15 117 21 281 60 373 89 41 14
110 32 152 42 77 18 78 18 148 -5 38 -12 75 -19 80 -16 23 14 7 45 -42 82 -29
22 -84 69 -123 104 -103 94 -151 130 -236 177 -114 62 -198 81 -369 87 -138 4
-150 3 -240 -24z m596 -135 c76 -36 147 -93 169 -136 12 -24 12 -30 -5 -58
-38 -62 -104 -92 -314 -141 l-78 -19 45 47 c26 25 53 63 62 83 17 42 21 184 5
237 -9 32 -9 33 18 27 15 -4 59 -22 98 -40z"/>
<path d="M2600 6233 c-55 -10 -228 -63 -275 -85 -28 -13 -90 -50 -139 -82 -88
-60 -124 -99 -214 -233 -23 -34 -74 -96 -113 -138 -82 -88 -85 -108 -24 -142
56 -32 109 -29 191 8 152 68 150 67 319 73 197 7 300 22 526 80 166 43 355
116 373 145 12 19 -9 13 -104 -29 -88 -39 -310 -110 -342 -110 -12 0 -7 9 14
32 68 73 91 117 96 188 6 93 -3 130 -43 181 -19 24 -33 44 -32 45 10 9 136
-24 241 -63 124 -45 130 -48 144 -84 8 -20 25 -42 38 -48 14 -6 29 -22 34 -36
5 -14 15 -25 21 -25 15 0 69 33 69 42 0 4 5 8 10 8 22 0 8 -30 -31 -65 -32
-29 -38 -39 -28 -46 30 -19 112 -2 135 28 33 44 3 115 -68 159 -67 43 -209
102 -372 155 -149 49 -151 49 -275 48 -70 -1 -137 -4 -151 -6z m-350 -267 c0
-66 35 -166 73 -212 19 -21 56 -50 83 -64 l49 -25 -65 -6 c-192 -19 -299 -5
-355 47 -29 27 -28 39 7 109 30 61 168 195 200 195 4 0 8 -20 8 -44z"/>
<path d="M3890 4850 c-68 -131 -114 -233 -154 -335 -26 -66 -56 -142 -67 -170
-57 -138 -81 -319 -60 -455 8 -53 26 -105 61 -177 55 -113 94 -164 140 -183
16 -7 30 -18 30 -25 0 -8 2 -20 5 -28 4 -8 -9 -24 -33 -40 -21 -15 -48 -45
-60 -66 l-22 -38 -78 -5 -78 -4 -75 -61 c-118 -96 -191 -181 -284 -333 -48
-77 -91 -141 -96 -141 -5 -1 -18 -2 -29 -3 -12 0 -25 -8 -30 -16 -6 -10 -10 3
-12 40 -4 65 -24 74 -42 20 -12 -38 -45 -49 -71 -24 -7 8 -23 14 -33 14 -11 0
-23 6 -25 13 -4 9 -6 9 -6 0 -1 -20 -19 -15 -26 7 -3 11 -15 20 -25 20 -10 0
-21 6 -23 13 -4 10 -6 10 -6 0 -1 -7 -10 -13 -21 -13 -23 0 -24 4 -8 33 10 20
10 21 -5 8 -21 -16 -21 -10 -2 53 25 83 -2 92 -41 14 -15 -29 -28 -55 -30 -57
-10 -11 -30 34 -27 58 4 23 3 24 -9 9 -9 -10 -28 -16 -47 -16 -26 1 -32 5 -28
19 3 12 0 16 -9 12 -8 -3 -14 1 -14 11 0 9 -7 16 -15 16 -9 0 -12 6 -8 16 5
14 3 15 -16 4 -22 -11 -23 -10 -16 19 5 24 3 31 -9 31 -8 0 -18 -5 -22 -12 -5
-8 -10 -6 -15 8 -7 17 -8 16 -9 -6 -1 -14 -4 -19 -7 -12 -2 6 -9 10 -14 6 -5
-3 -9 0 -9 6 0 6 -5 8 -12 4 -7 -4 -8 -3 -4 4 4 6 2 21 -4 33 -9 16 -8 24 4
38 34 37 9 64 -26 29 -13 -13 -26 -23 -30 -23 -4 0 -14 -9 -22 -20 -17 -22
-22 -5 -8 23 6 12 3 22 -9 34 -18 17 -20 16 -40 -5 l-22 -22 7 27 c7 29 -8 48
-18 23 -7 -18 -36 -20 -36 -2 0 7 11 29 25 49 14 20 25 44 25 52 0 33 -31 14
-67 -41 -32 -48 -39 -53 -41 -34 -3 16 -9 21 -25 19 -12 -2 -25 -7 -29 -13 -4
-5 -8 6 -9 25 0 21 -3 29 -7 20 -6 -14 -9 -14 -23 1 -15 15 -15 20 1 65 21 60
53 124 92 184 l29 45 -36 -40 c-39 -43 -85 -132 -120 -232 l-22 -62 -10 47
c-9 42 -10 44 -12 15 0 -18 -6 -33 -11 -33 -6 0 -8 11 -4 28 7 24 6 26 -9 13
-11 -9 -17 -10 -17 -2 0 6 -6 10 -12 9 -8 -2 -12 6 -11 22 l3 25 -18 -22 c-11
-15 -21 -20 -31 -14 -33 21 22 313 83 446 19 41 60 113 92 160 63 94 64 125 2
55 -132 -149 -212 -343 -233 -567 -4 -40 -11 -73 -15 -73 -12 0 -20 28 -13 47
4 11 3 14 -5 9 -7 -4 -12 -15 -12 -25 0 -10 -9 -21 -20 -24 -13 -3 -20 0 -20
9 0 8 -6 11 -17 7 -13 -5 -15 -2 -10 16 4 18 3 20 -9 10 -11 -9 -14 -9 -14 0
0 7 -4 10 -9 6 -5 -3 -13 4 -16 16 -6 17 -9 19 -16 8 -7 -12 -9 -11 -9 1 -1
11 -4 10 -16 -5 -15 -19 -16 -18 -9 15 4 19 16 55 27 80 52 118 66 160 55 167
-16 10 -44 -32 -88 -133 -53 -120 -62 -137 -78 -142 -10 -3 -11 2 -6 19 7 21
6 22 -9 10 -14 -12 -16 -11 -17 5 0 13 -6 8 -15 -14 -12 -28 -17 -32 -29 -22
-8 7 -24 10 -35 7 -14 -4 -20 0 -21 11 0 11 -2 12 -6 5 -9 -23 -23 -14 -24 15
l-1 27 -11 -30 c-28 -71 -56 -85 -57 -27 -1 26 -2 25 -21 -11 -11 -22 -23 -37
-26 -34 -2 3 1 15 7 27 9 16 9 25 -1 36 -17 20 -34 17 -53 -8 l-17 -23 6 25 6
25 -20 -24 c-20 -22 -21 -23 -21 -2 0 15 -4 19 -16 14 -14 -5 -16 -1 -12 22
l6 27 -24 -28 c-13 -16 -23 -33 -24 -38 0 -4 -8 -5 -17 -2 -9 4 -20 1 -25 -6
-6 -8 -7 -4 -3 12 6 20 5 23 -6 13 -17 -17 -37 -17 -21 -1 7 7 12 17 12 22 0
6 -7 0 -16 -12 -16 -24 -39 -20 -30 5 3 8 1 11 -4 8 -16 -10 -12 8 16 85 15
39 24 74 20 78 -13 12 -41 -15 -66 -66 -14 -28 -30 -51 -36 -51 -7 -1 -15 -12
-18 -26 -11 -44 -23 -27 -18 26 3 37 2 50 -7 45 -6 -4 -11 -14 -11 -22 0 -8
-4 -14 -10 -14 -5 0 -10 -7 -10 -16 0 -8 -4 -12 -10 -9 -5 3 -10 15 -10 26 0
27 -20 24 -21 -3 -1 -13 -5 -5 -8 17 l-7 40 -21 -45 -20 -45 -12 29 c-7 16 -9
36 -6 44 7 20 -5 37 -16 21 -7 -11 -9 -10 -9 4 0 9 -4 17 -10 17 -5 0 -11 -21
-11 -47 -1 -43 -2 -45 -9 -18 l-8 30 -2 -30 c-4 -68 -19 -70 -19 -2 -1 37 -5
67 -10 67 -5 0 -11 25 -13 55 -5 56 -12 74 -25 61 -9 -9 -21 -281 -22 -526 -1
-96 -8 -224 -16 -285 -27 -202 -17 -349 41 -592 25 -103 40 -145 89 -246 l27
-55 -56 -74 c-96 -128 -204 -400 -191 -480 8 -46 25 -60 25 -21 0 40 71 182
126 255 40 52 147 148 165 148 7 0 59 -158 78 -235 28 -114 55 -360 57 -520 3
-286 21 -687 33 -748 21 -104 99 -265 159 -329 l26 -28 3673 0 3673 0 1 58 2
57 10 -57 10 -58 98 0 c93 0 98 1 102 22 l4 23 2 -22 c1 -20 7 -23 40 -23 l38
0 4 183 c9 435 2 553 -47 792 -13 64 8 13 31 -76 14 -52 42 -137 63 -189 l37
-95 3 940 2 939 -39 96 c-22 53 -44 123 -50 156 -11 65 -23 254 -16 254 3 0
26 -32 52 -72 l48 -71 3 337 2 338 -87 101 c-91 104 -131 137 -236 197 -52 30
-74 52 -139 140 -127 174 -149 193 -403 351 -71 44 -160 103 -198 132 -117 89
-200 214 -220 333 -11 65 -29 81 -35 31 -4 -35 -15 -34 -29 1 -9 25 -10 24
-11 -20 0 -56 -6 -66 -39 -79 -19 -7 -24 -15 -20 -29 4 -15 1 -20 -11 -18 -12
2 -17 -4 -17 -23 0 -22 -4 -25 -24 -23 -14 1 -30 -4 -36 -13 -9 -12 -16 -13
-33 -4 -46 25 -44 -1 5 -51 20 -21 32 -38 26 -38 -6 0 -16 7 -23 15 -15 18
-31 10 -23 -11 5 -13 1 -15 -17 -9 -15 5 -20 4 -16 -4 4 -6 3 -11 -3 -11 -5 0
-12 8 -14 18 -3 10 -5 6 -6 -11 0 -15 -7 -30 -15 -33 -8 -3 -12 -13 -9 -25 6
-21 -7 -25 -25 -7 -9 9 -12 9 -12 -1 0 -8 -9 -6 -27 7 -55 37 -57 34 -8 -11
28 -25 47 -48 43 -52 -4 -4 -12 -4 -19 1 -16 9 -79 15 -79 7 0 -4 10 -18 23
-31 17 -20 18 -24 5 -19 -12 4 -18 1 -18 -9 0 -9 -5 -12 -11 -8 -8 5 -10 -1
-7 -20 4 -20 2 -24 -5 -17 -16 16 -27 14 -27 -5 0 -10 -5 -12 -12 -7 -7 4 -5
-5 5 -20 20 -30 23 -47 5 -29 -21 21 -39 14 -32 -13 4 -17 1 -27 -9 -31 -9 -3
-13 -12 -10 -20 3 -8 0 -14 -6 -14 -6 0 -11 -10 -11 -22 -1 -23 -1 -23 -15 2
-16 28 -21 9 -5 -20 10 -18 8 -19 -22 -14 -77 14 -144 78 -219 205 -46 80 -54
90 -57 67 -4 -33 54 -149 102 -205 20 -23 59 -57 86 -74 28 -18 50 -33 50 -35
0 -13 -29 -52 -35 -46 -5 4 -6 0 -2 -10 9 -26 -6 -31 -21 -6 -13 22 -13 22 -7
-7 l6 -29 -22 19 -22 20 6 -40 5 -40 -13 30 c-13 27 -14 27 -15 8 0 -13 -5
-23 -11 -23 -5 0 -7 -4 -4 -10 5 -8 -15 -13 -41 -9 -14 2 -24 -28 -18 -56 l5
-30 -19 24 c-20 24 -38 16 -21 -9 5 -8 9 -18 9 -22 0 -13 -28 -9 -33 5 -3 7
-6 5 -6 -5 -1 -12 -9 -18 -25 -18 -19 0 -22 -4 -18 -25 2 -15 0 -25 -7 -25 -6
0 -11 6 -11 14 0 8 -5 18 -11 22 -7 4 -9 0 -5 -14 6 -17 3 -19 -15 -15 -18 5
-20 3 -14 -17 6 -19 4 -21 -13 -16 -26 9 -38 -24 -22 -54 7 -12 9 -25 5 -28
-3 -3 -8 4 -12 16 -7 29 -23 28 -24 0 0 -13 -4 -32 -8 -43 -7 -18 -9 -17 -25
10 l-17 30 6 -27 c3 -18 1 -28 -6 -28 -7 0 -9 -9 -5 -26 5 -17 3 -23 -4 -19
-5 3 -10 13 -10 21 0 8 -4 14 -9 14 -5 0 -8 -11 -6 -25 2 -26 -10 -34 -18 -12
-3 7 -6 5 -6 -5 -1 -10 -8 -18 -17 -18 -13 0 -15 -8 -12 -40 4 -43 0 -47 -21
-27 -11 10 -13 9 -8 -5 8 -23 8 -23 -48 8 -43 25 -53 26 -126 21 -43 -4 -92
-13 -108 -21 l-29 -15 -16 59 c-22 77 -69 120 -133 120 -23 0 -45 -5 -49 -12
-5 -8 -10 -7 -18 4 -6 9 -29 27 -50 42 -46 31 -127 36 -164 10 -21 -14 -25
-14 -47 0 -13 9 -36 16 -49 16 l-25 0 20 47 c17 41 19 55 10 110 -17 110 -76
172 -197 208 -45 14 -58 14 -123 0 -40 -8 -85 -22 -100 -29 -44 -24 -204 -93
-245 -106 -56 -18 -215 -7 -288 19 -32 12 -66 21 -76 21 -9 0 -26 6 -37 14
-11 7 -45 16 -75 20 -114 14 -177 80 -206 216 -21 99 -14 272 16 359 25 76 25
89 0 66 -39 -35 -55 -117 -55 -280 0 -185 15 -244 78 -309 l42 -44 -58 -31
c-32 -18 -73 -45 -91 -62 -26 -22 -36 -26 -44 -16 -23 29 -45 85 -71 185 -25
98 -27 116 -21 212 4 58 13 118 19 135 7 16 50 68 96 116 109 114 119 148 53
190 -43 27 -120 21 -183 -15 -25 -13 -45 -24 -45 -22 0 1 14 42 30 91 34 100
33 95 23 95 -5 0 -15 -14 -23 -30z m2850 -991 c0 -6 -4 -7 -10 -4 -5 3 -10 11
-10 16 0 6 5 7 10 4 6 -3 10 -11 10 -16z m-220 -164 c0 -8 -2 -15 -4 -15 -2 0
-6 7 -10 15 -3 8 -1 15 4 15 6 0 10 -7 10 -15z m-1477 -16 c49 -6 102 -16 119
-23 27 -12 28 -14 12 -21 -11 -5 -63 -11 -116 -15 -70 -4 -101 -10 -115 -22
-10 -9 -37 -21 -61 -26 -50 -12 -93 -38 -99 -61 -3 -12 -17 -16 -61 -17 -31
-1 -74 -5 -94 -9 -21 -4 -38 -3 -37 1 2 31 293 204 343 204 11 0 61 -5 109
-11z"/>
<path d="M5549 4500 c43 -66 89 -175 102 -238 19 -101 3 -296 -37 -424 -3 -10
-1 -18 4 -18 5 0 19 35 32 78 28 94 39 287 20 375 -14 72 -80 204 -116 237
l-28 25 23 -35z"/>
</g>
</svg>
